<svg width="21" height="22" viewBox="0 0 21 22" fill="none" xmlns="http://www.w3.org/2000/svg" id="svg-1679133091_1132">
<path d="M10.4998 0.888672C4.91534 0.888672 0.388672 5.41534 0.388672 10.9998C0.388672 16.5842 4.91534 21.1109 10.4998 21.1109C16.0842 21.1109 20.6109 16.5842 20.6109 10.9998C20.6109 5.41534 16.0842 0.888672 10.4998 0.888672ZM10.4998 2.44423C15.2178 2.44423 19.0553 6.28178 19.0553 10.9998C19.0553 15.7178 15.2178 19.5553 10.4998 19.5553C5.78178 19.5553 1.94423 15.7178 1.94423 10.9998C1.94423 6.28178 5.78178 2.44423 10.4998 2.44423ZM16.3635 7.51497C14.8157 7.51653 14.0036 8.57166 13.5836 9.69944C13.5836 9.69944 12.7101 12.4405 12.6447 12.6738C12.6199 12.4405 11.9794 7.51801 11.9794 7.51801C10.4876 7.51801 9.69539 8.57166 9.27539 9.69944C9.27539 9.69944 8.21406 12.4512 8.12695 12.6829C8.12229 12.4652 7.96593 9.72982 7.96593 9.72982C7.87571 8.35471 6.62103 7.52105 5.60525 7.52105L6.82964 14.9829C8.39142 14.9782 9.23013 13.9215 9.67036 12.7984C9.67036 12.7984 10.6052 10.3735 10.6456 10.2615C10.6565 10.3673 11.3171 14.9829 11.3171 14.9829C12.8788 14.9829 13.7233 13.9935 14.179 12.9108L16.3635 7.51497Z" fill="#202225"></path>
</svg>