<svg width="17" height="16" viewBox="0 0 17 16" fill="none" xmlns="http://www.w3.org/2000/svg" id="svg-1393653969_2088">
<g clip-path="url(#svg-1393653969_2088_clip0_226_3904)">
<path d="M5.16634 0H2.49967C2.32286 0 2.15329 0.0702379 2.02827 0.195262C1.90325 0.320286 1.83301 0.489856 1.83301 0.666667C1.83301 0.843478 1.90325 1.01305 2.02827 1.13807C2.15329 1.2631 2.32286 1.33333 2.49967 1.33333H3.16634V2.66667H4.49967V1.33333H5.16634C5.34315 1.33333 5.51272 1.2631 5.63775 1.13807C5.76277 1.01305 5.83301 0.843478 5.83301 0.666667C5.83301 0.489856 5.76277 0.320286 5.63775 0.195262C5.51272 0.0702379 5.34315 0 5.16634 0V0Z" fill="#202225"></path>
<path d="M14.5003 0H11.8337C11.6568 0 11.4873 0.0702379 11.3623 0.195262C11.2372 0.320286 11.167 0.489856 11.167 0.666667C11.167 0.843478 11.2372 1.01305 11.3623 1.13807C11.4873 1.2631 11.6568 1.33333 11.8337 1.33333H12.5003V2.66667H13.8337V1.33333H14.5003C14.6771 1.33333 14.8467 1.2631 14.9717 1.13807C15.0968 1.01305 15.167 0.843478 15.167 0.666667C15.167 0.489856 15.0968 0.320286 14.9717 0.195262C14.8467 0.0702379 14.6771 0 14.5003 0V0Z" fill="#202225"></path>
<path d="M15.8333 4H1.16667C0.989856 4 0.820286 4.07024 0.695262 4.19526C0.570238 4.32029 0.5 4.48986 0.5 4.66667L0.5 15.3333C0.5 15.5101 0.570238 15.6797 0.695262 15.8047C0.820286 15.9298 0.989856 16 1.16667 16H15.8333C16.0101 16 16.1797 15.9298 16.3047 15.8047C16.4298 15.6797 16.5 15.5101 16.5 15.3333V4.66667C16.5 4.48986 16.4298 4.32029 16.3047 4.19526C16.1797 4.07024 16.0101 4 15.8333 4ZM3.83333 6.66667H6.5V8H3.83333V6.66667ZM13.1667 12.6667C13.1667 12.8435 13.0964 13.013 12.9714 13.1381C12.8464 13.2631 12.6768 13.3333 12.5 13.3333H4.5C4.32319 13.3333 4.15362 13.2631 4.0286 13.1381C3.90357 13.013 3.83333 12.8435 3.83333 12.6667V10.6667C3.83333 10.4899 3.90357 10.3203 4.0286 10.1953C4.15362 10.0702 4.32319 10 4.5 10H12.5C12.6768 10 12.8464 10.0702 12.9714 10.1953C13.0964 10.3203 13.1667 10.4899 13.1667 10.6667V12.6667ZM13.1667 8H10.5V6.66667H13.1667V8Z" fill="#202225"></path>
</g>
<defs>
<clipPath id="svg-1393653969_2088_clip0_226_3904">
<rect width="16" height="16" fill="white" transform="translate(0.5)"></rect>
</clipPath>
</defs>
</svg>